%TF.GenerationSoftware,KiCad,Pcbnew,(6.0.7)*%
%TF.CreationDate,2024-03-23T14:20:04-04:00*%
%TF.ProjectId,single_cell_current,73696e67-6c65-45f6-9365-6c6c5f637572,rev?*%
%TF.SameCoordinates,Original*%
%TF.FileFunction,Copper,L2,Bot*%
%TF.FilePolarity,Positive*%
%FSLAX46Y46*%
G04 Gerber Fmt 4.6, Leading zero omitted, Abs format (unit mm)*
G04 Created by KiCad (PCBNEW (6.0.7)) date 2024-03-23 14:20:04*
%MOMM*%
%LPD*%
G01*
G04 APERTURE LIST*
G04 Aperture macros list*
%AMRoundRect*
0 Rectangle with rounded corners*
0 $1 Rounding radius*
0 $2 $3 $4 $5 $6 $7 $8 $9 X,Y pos of 4 corners*
0 Add a 4 corners polygon primitive as box body*
4,1,4,$2,$3,$4,$5,$6,$7,$8,$9,$2,$3,0*
0 Add four circle primitives for the rounded corners*
1,1,$1+$1,$2,$3*
1,1,$1+$1,$4,$5*
1,1,$1+$1,$6,$7*
1,1,$1+$1,$8,$9*
0 Add four rect primitives between the rounded corners*
20,1,$1+$1,$2,$3,$4,$5,0*
20,1,$1+$1,$4,$5,$6,$7,0*
20,1,$1+$1,$6,$7,$8,$9,0*
20,1,$1+$1,$8,$9,$2,$3,0*%
G04 Aperture macros list end*
%TA.AperFunction,ComponentPad*%
%ADD10RoundRect,0.250000X-0.550000X-0.550000X0.550000X-0.550000X0.550000X0.550000X-0.550000X0.550000X0*%
%TD*%
%TA.AperFunction,ComponentPad*%
%ADD11C,9.000000*%
%TD*%
%TA.AperFunction,ComponentPad*%
%ADD12RoundRect,0.250000X0.725000X-0.600000X0.725000X0.600000X-0.725000X0.600000X-0.725000X-0.600000X0*%
%TD*%
%TA.AperFunction,ComponentPad*%
%ADD13O,1.950000X1.700000*%
%TD*%
%TA.AperFunction,ViaPad*%
%ADD14C,0.800000*%
%TD*%
%TA.AperFunction,ViaPad*%
%ADD15C,2.000000*%
%TD*%
%TA.AperFunction,Conductor*%
%ADD16C,0.250000*%
%TD*%
G04 APERTURE END LIST*
D10*
%TO.P,TP1,1,1*%
%TO.N,Net-(Rpu1-Pad2)*%
X212000000Y-61500000D03*
%TD*%
D11*
%TO.P,H4.1,1,1*%
%TO.N,/M1+*%
X198400000Y-72045200D03*
%TD*%
D12*
%TO.P,J1,1,Pin_1*%
%TO.N,Net-(J1-Pad1)*%
X240550000Y-62250000D03*
D13*
%TO.P,J1,2,Pin_2*%
%TO.N,Net-(J1-Pad2)*%
X240550000Y-59750000D03*
%TO.P,J1,3,Pin_3*%
%TO.N,+3.3V*%
X240550000Y-57250000D03*
%TO.P,J1,4,Pin_4*%
%TO.N,Earth*%
X240550000Y-54750000D03*
%TD*%
D11*
%TO.P,H4.2,1,1*%
%TO.N,/M1-*%
X210200000Y-71945200D03*
%TD*%
D14*
%TO.N,Net-(J1-Pad1)*%
X228800000Y-59700000D03*
D15*
X236400000Y-64900000D03*
%TO.N,Net-(J1-Pad2)*%
X232800000Y-64900000D03*
%TO.N,+3.3V*%
X240200000Y-48700000D03*
%TO.N,Earth*%
X236400000Y-48600000D03*
D14*
X207200000Y-64219700D03*
X236220000Y-55880000D03*
X227700000Y-48400000D03*
X199050000Y-58945200D03*
X229700000Y-48300000D03*
X225100000Y-48400000D03*
D15*
%TO.N,Net-(U7-Pad11)*%
X216200000Y-56800000D03*
%TD*%
D16*
%TO.N,Net-(J1-Pad1)*%
X240250000Y-62250000D02*
X240550000Y-62250000D01*
X228800000Y-59700000D02*
X237700000Y-59700000D01*
X237700000Y-59700000D02*
X240250000Y-62250000D01*
%TD*%
%TA.AperFunction,Conductor*%
%TO.N,Earth*%
G36*
X241344250Y-45020502D02*
G01*
X241390743Y-45074158D01*
X241402129Y-45126205D01*
X241407612Y-47473241D01*
X241407614Y-47473981D01*
X241387771Y-47542148D01*
X241334224Y-47588766D01*
X241263974Y-47599034D01*
X241199784Y-47570086D01*
X241093182Y-47479040D01*
X241093178Y-47479037D01*
X241089416Y-47475824D01*
X241085208Y-47473245D01*
X241085202Y-47473241D01*
X240891183Y-47354346D01*
X240886963Y-47351760D01*
X240882393Y-47349867D01*
X240882389Y-47349865D01*
X240672167Y-47262789D01*
X240672165Y-47262788D01*
X240667594Y-47260895D01*
X240587391Y-47241640D01*
X240441524Y-47206620D01*
X240441518Y-47206619D01*
X240436711Y-47205465D01*
X240200000Y-47186835D01*
X239963289Y-47205465D01*
X239958482Y-47206619D01*
X239958476Y-47206620D01*
X239812609Y-47241640D01*
X239732406Y-47260895D01*
X239727835Y-47262788D01*
X239727833Y-47262789D01*
X239517611Y-47349865D01*
X239517607Y-47349867D01*
X239513037Y-47351760D01*
X239508817Y-47354346D01*
X239314798Y-47473241D01*
X239314792Y-47473245D01*
X239310584Y-47475824D01*
X239130031Y-47630031D01*
X238975824Y-47810584D01*
X238973245Y-47814792D01*
X238973241Y-47814798D01*
X238854346Y-48008817D01*
X238851760Y-48013037D01*
X238760895Y-48232406D01*
X238705465Y-48463289D01*
X238686835Y-48700000D01*
X238705465Y-48936711D01*
X238760895Y-49167594D01*
X238851760Y-49386963D01*
X238854346Y-49391183D01*
X238973241Y-49585202D01*
X238973245Y-49585208D01*
X238975824Y-49589416D01*
X239130031Y-49769969D01*
X239310584Y-49924176D01*
X239314792Y-49926755D01*
X239314798Y-49926759D01*
X239508817Y-50045654D01*
X239513037Y-50048240D01*
X239517607Y-50050133D01*
X239517611Y-50050135D01*
X239727833Y-50137211D01*
X239732406Y-50139105D01*
X239812609Y-50158360D01*
X239958476Y-50193380D01*
X239958482Y-50193381D01*
X239963289Y-50194535D01*
X240200000Y-50213165D01*
X240436711Y-50194535D01*
X240441518Y-50193381D01*
X240441524Y-50193380D01*
X240587391Y-50158360D01*
X240667594Y-50139105D01*
X240672167Y-50137211D01*
X240882389Y-50050135D01*
X240882393Y-50050133D01*
X240886963Y-50048240D01*
X240891183Y-50045654D01*
X241085202Y-49926759D01*
X241085208Y-49926755D01*
X241089416Y-49924176D01*
X241093176Y-49920965D01*
X241093182Y-49920961D01*
X241205501Y-49825031D01*
X241270290Y-49796000D01*
X241340490Y-49806605D01*
X241393813Y-49853480D01*
X241413331Y-49920548D01*
X241421452Y-53396724D01*
X241401610Y-53464889D01*
X241348063Y-53511507D01*
X241277813Y-53521775D01*
X241246735Y-53512614D01*
X241246675Y-53512781D01*
X241243972Y-53511800D01*
X241242602Y-53511396D01*
X241241659Y-53510960D01*
X241035059Y-53435969D01*
X241024792Y-53433198D01*
X240821826Y-53396496D01*
X240808586Y-53397915D01*
X240804000Y-53412550D01*
X240804000Y-54878000D01*
X240783998Y-54946121D01*
X240730342Y-54992614D01*
X240678000Y-55004000D01*
X239108808Y-55004000D01*
X239095277Y-55007973D01*
X239093752Y-55018580D01*
X239118477Y-55136421D01*
X239121537Y-55146617D01*
X239202263Y-55351029D01*
X239206994Y-55360561D01*
X239321016Y-55548462D01*
X239327280Y-55557052D01*
X239471327Y-55723052D01*
X239478958Y-55730472D01*
X239648911Y-55869826D01*
X239657674Y-55875848D01*
X239684711Y-55891238D01*
X239734018Y-55942320D01*
X239747880Y-56011951D01*
X239721897Y-56078022D01*
X239692747Y-56105261D01*
X239681197Y-56113037D01*
X239570681Y-56187441D01*
X239403865Y-56346576D01*
X239266246Y-56531542D01*
X239161760Y-56737051D01*
X239160178Y-56742145D01*
X239160177Y-56742148D01*
X239140683Y-56804930D01*
X239093393Y-56957227D01*
X239092692Y-56962516D01*
X239082221Y-57041524D01*
X239063102Y-57185774D01*
X239071751Y-57416158D01*
X239119093Y-57641791D01*
X239121051Y-57646750D01*
X239121052Y-57646752D01*
X239139386Y-57693175D01*
X239203776Y-57856221D01*
X239206543Y-57860780D01*
X239206544Y-57860783D01*
X239214065Y-57873177D01*
X239323377Y-58053317D01*
X239326874Y-58057347D01*
X239405747Y-58148240D01*
X239474477Y-58227445D01*
X239490106Y-58240260D01*
X239648627Y-58370240D01*
X239648633Y-58370244D01*
X239652755Y-58373624D01*
X239684250Y-58391552D01*
X239733555Y-58442632D01*
X239747417Y-58512262D01*
X239721434Y-58578333D01*
X239692284Y-58605573D01*
X239570681Y-58687441D01*
X239403865Y-58846576D01*
X239266246Y-59031542D01*
X239263830Y-59036293D01*
X239263828Y-59036297D01*
X239226294Y-59110121D01*
X239161760Y-59237051D01*
X239160178Y-59242145D01*
X239160177Y-59242148D01*
X239133381Y-59328444D01*
X239093393Y-59457227D01*
X239063102Y-59685774D01*
X239063302Y-59691103D01*
X239063302Y-59691105D01*
X239069834Y-59865101D01*
X239052402Y-59933924D01*
X239000528Y-59982397D01*
X238930683Y-59995130D01*
X238865041Y-59968081D01*
X238854827Y-59958923D01*
X238602470Y-59706565D01*
X238203647Y-59307742D01*
X238196113Y-59299463D01*
X238192000Y-59292982D01*
X238142348Y-59246356D01*
X238139507Y-59243602D01*
X238119770Y-59223865D01*
X238116573Y-59221385D01*
X238107551Y-59213680D01*
X238081100Y-59188841D01*
X238075321Y-59183414D01*
X238068375Y-59179595D01*
X238068372Y-59179593D01*
X238057566Y-59173652D01*
X238041047Y-59162801D01*
X238035048Y-59158148D01*
X238025041Y-59150386D01*
X238017772Y-59147241D01*
X238017768Y-59147238D01*
X237984463Y-59132826D01*
X237973813Y-59127609D01*
X237935060Y-59106305D01*
X237915437Y-59101267D01*
X237896734Y-59094863D01*
X237885420Y-59089967D01*
X237885419Y-59089967D01*
X237878145Y-59086819D01*
X237870322Y-59085580D01*
X237870312Y-59085577D01*
X237834476Y-59079901D01*
X237822856Y-59077495D01*
X237787711Y-59068472D01*
X237787710Y-59068472D01*
X237780030Y-59066500D01*
X237759776Y-59066500D01*
X237740065Y-59064949D01*
X237727886Y-59063020D01*
X237720057Y-59061780D01*
X237712165Y-59062526D01*
X237676039Y-59065941D01*
X237664181Y-59066500D01*
X229508200Y-59066500D01*
X229440079Y-59046498D01*
X229420853Y-59030157D01*
X229420580Y-59030460D01*
X229415668Y-59026037D01*
X229411253Y-59021134D01*
X229256752Y-58908882D01*
X229250724Y-58906198D01*
X229250722Y-58906197D01*
X229088319Y-58833891D01*
X229088318Y-58833891D01*
X229082288Y-58831206D01*
X228988888Y-58811353D01*
X228901944Y-58792872D01*
X228901939Y-58792872D01*
X228895487Y-58791500D01*
X228704513Y-58791500D01*
X228698061Y-58792872D01*
X228698056Y-58792872D01*
X228611112Y-58811353D01*
X228517712Y-58831206D01*
X228511682Y-58833891D01*
X228511681Y-58833891D01*
X228349278Y-58906197D01*
X228349276Y-58906198D01*
X228343248Y-58908882D01*
X228188747Y-59021134D01*
X228184326Y-59026044D01*
X228184325Y-59026045D01*
X228075203Y-59147238D01*
X228060960Y-59163056D01*
X227965473Y-59328444D01*
X227906458Y-59510072D01*
X227886496Y-59700000D01*
X227887186Y-59706565D01*
X227903849Y-59865101D01*
X227906458Y-59889928D01*
X227965473Y-60071556D01*
X228060960Y-60236944D01*
X228188747Y-60378866D01*
X228287843Y-60450864D01*
X228316270Y-60471517D01*
X228343248Y-60491118D01*
X228349276Y-60493802D01*
X228349278Y-60493803D01*
X228511681Y-60566109D01*
X228517712Y-60568794D01*
X228611112Y-60588647D01*
X228698056Y-60607128D01*
X228698061Y-60607128D01*
X228704513Y-60608500D01*
X228895487Y-60608500D01*
X228901939Y-60607128D01*
X228901944Y-60607128D01*
X228988888Y-60588647D01*
X229082288Y-60568794D01*
X229088319Y-60566109D01*
X229250722Y-60493803D01*
X229250724Y-60493802D01*
X229256752Y-60491118D01*
X229283731Y-60471517D01*
X229389671Y-60394546D01*
X229411253Y-60378866D01*
X229415668Y-60373963D01*
X229420580Y-60369540D01*
X229421705Y-60370789D01*
X229475014Y-60337949D01*
X229508200Y-60333500D01*
X237385406Y-60333500D01*
X237453527Y-60353502D01*
X237474501Y-60370405D01*
X239029595Y-61925499D01*
X239063621Y-61987811D01*
X239066500Y-62014594D01*
X239066500Y-62900400D01*
X239077474Y-63006166D01*
X239133450Y-63173946D01*
X239226522Y-63324348D01*
X239351697Y-63449305D01*
X239357927Y-63453145D01*
X239357928Y-63453146D01*
X239368626Y-63459740D01*
X239502262Y-63542115D01*
X239525628Y-63549865D01*
X239663611Y-63595632D01*
X239663613Y-63595632D01*
X239670139Y-63597797D01*
X239676975Y-63598497D01*
X239676978Y-63598498D01*
X239720031Y-63602909D01*
X239774600Y-63608500D01*
X241319605Y-63608500D01*
X241387726Y-63628502D01*
X241434219Y-63682158D01*
X241445605Y-63734206D01*
X241447095Y-64372164D01*
X241427252Y-64440331D01*
X241373705Y-64486949D01*
X241320875Y-64498458D01*
X237947981Y-64492540D01*
X237879897Y-64472419D01*
X237831795Y-64414759D01*
X237829547Y-64409330D01*
X237748240Y-64213037D01*
X237745654Y-64208817D01*
X237626759Y-64014798D01*
X237626755Y-64014792D01*
X237624176Y-64010584D01*
X237469969Y-63830031D01*
X237289416Y-63675824D01*
X237285208Y-63673245D01*
X237285202Y-63673241D01*
X237091183Y-63554346D01*
X237086963Y-63551760D01*
X237082393Y-63549867D01*
X237082389Y-63549865D01*
X236872167Y-63462789D01*
X236872165Y-63462788D01*
X236867594Y-63460895D01*
X236787391Y-63441640D01*
X236641524Y-63406620D01*
X236641518Y-63406619D01*
X236636711Y-63405465D01*
X236400000Y-63386835D01*
X236163289Y-63405465D01*
X236158482Y-63406619D01*
X236158476Y-63406620D01*
X236012609Y-63441640D01*
X235932406Y-63460895D01*
X235927835Y-63462788D01*
X235927833Y-63462789D01*
X235717611Y-63549865D01*
X235717607Y-63549867D01*
X235713037Y-63551760D01*
X235708817Y-63554346D01*
X235514798Y-63673241D01*
X235514792Y-63673245D01*
X235510584Y-63675824D01*
X235330031Y-63830031D01*
X235175824Y-64010584D01*
X235173245Y-64014792D01*
X235173241Y-64014798D01*
X235054346Y-64208817D01*
X235051760Y-64213037D01*
X235049867Y-64217607D01*
X235049865Y-64217611D01*
X234970453Y-64409330D01*
X234925905Y-64464611D01*
X234853823Y-64487112D01*
X234345365Y-64486220D01*
X234277279Y-64466098D01*
X234229177Y-64408438D01*
X234226933Y-64403019D01*
X234148240Y-64213037D01*
X234145654Y-64208817D01*
X234026759Y-64014798D01*
X234026755Y-64014792D01*
X234024176Y-64010584D01*
X233869969Y-63830031D01*
X233689416Y-63675824D01*
X233685208Y-63673245D01*
X233685202Y-63673241D01*
X233491183Y-63554346D01*
X233486963Y-63551760D01*
X233482393Y-63549867D01*
X233482389Y-63549865D01*
X233272167Y-63462789D01*
X233272165Y-63462788D01*
X233267594Y-63460895D01*
X233187391Y-63441640D01*
X233041524Y-63406620D01*
X233041518Y-63406619D01*
X233036711Y-63405465D01*
X232800000Y-63386835D01*
X232563289Y-63405465D01*
X232558482Y-63406619D01*
X232558476Y-63406620D01*
X232412609Y-63441640D01*
X232332406Y-63460895D01*
X232327835Y-63462788D01*
X232327833Y-63462789D01*
X232117611Y-63549865D01*
X232117607Y-63549867D01*
X232113037Y-63551760D01*
X232108817Y-63554346D01*
X231914798Y-63673241D01*
X231914792Y-63673245D01*
X231910584Y-63675824D01*
X231730031Y-63830031D01*
X231575824Y-64010584D01*
X231573245Y-64014792D01*
X231573241Y-64014798D01*
X231454346Y-64208817D01*
X231451760Y-64213037D01*
X231449867Y-64217607D01*
X231449865Y-64217611D01*
X231373067Y-64403019D01*
X231328519Y-64458300D01*
X231256438Y-64480801D01*
X186226277Y-64401800D01*
X186158193Y-64381679D01*
X186111795Y-64327942D01*
X186100500Y-64275801D01*
X186100500Y-62100400D01*
X210691500Y-62100400D01*
X210702474Y-62206166D01*
X210758450Y-62373946D01*
X210851522Y-62524348D01*
X210976697Y-62649305D01*
X210982927Y-62653145D01*
X210982928Y-62653146D01*
X211120090Y-62737694D01*
X211127262Y-62742115D01*
X211207005Y-62768564D01*
X211288611Y-62795632D01*
X211288613Y-62795632D01*
X211295139Y-62797797D01*
X211301975Y-62798497D01*
X211301978Y-62798498D01*
X211345031Y-62802909D01*
X211399600Y-62808500D01*
X212600400Y-62808500D01*
X212603646Y-62808163D01*
X212603650Y-62808163D01*
X212699308Y-62798238D01*
X212699312Y-62798237D01*
X212706166Y-62797526D01*
X212712702Y-62795345D01*
X212712704Y-62795345D01*
X212844806Y-62751272D01*
X212873946Y-62741550D01*
X213024348Y-62648478D01*
X213149305Y-62523303D01*
X213242115Y-62372738D01*
X213297797Y-62204861D01*
X213308500Y-62100400D01*
X213308500Y-60899600D01*
X213308163Y-60896350D01*
X213298238Y-60800692D01*
X213298237Y-60800688D01*
X213297526Y-60793834D01*
X213241550Y-60626054D01*
X213148478Y-60475652D01*
X213023303Y-60350695D01*
X212902637Y-60276315D01*
X212878968Y-60261725D01*
X212878966Y-60261724D01*
X212872738Y-60257885D01*
X212712254Y-60204655D01*
X212711389Y-60204368D01*
X212711387Y-60204368D01*
X212704861Y-60202203D01*
X212698025Y-60201503D01*
X212698022Y-60201502D01*
X212654969Y-60197091D01*
X212600400Y-60191500D01*
X211399600Y-60191500D01*
X211396354Y-60191837D01*
X211396350Y-60191837D01*
X211300692Y-60201762D01*
X211300688Y-60201763D01*
X211293834Y-60202474D01*
X211287298Y-60204655D01*
X211287296Y-60204655D01*
X211207654Y-60231226D01*
X211126054Y-60258450D01*
X210975652Y-60351522D01*
X210850695Y-60476697D01*
X210846855Y-60482927D01*
X210846854Y-60482928D01*
X210793080Y-60570166D01*
X210757885Y-60627262D01*
X210702203Y-60795139D01*
X210691500Y-60899600D01*
X210691500Y-62100400D01*
X186100500Y-62100400D01*
X186100500Y-56800000D01*
X214686835Y-56800000D01*
X214705465Y-57036711D01*
X214760895Y-57267594D01*
X214762788Y-57272165D01*
X214762789Y-57272167D01*
X214824594Y-57421377D01*
X214851760Y-57486963D01*
X214854346Y-57491183D01*
X214973241Y-57685202D01*
X214973245Y-57685208D01*
X214975824Y-57689416D01*
X215130031Y-57869969D01*
X215310584Y-58024176D01*
X215314792Y-58026755D01*
X215314798Y-58026759D01*
X215508817Y-58145654D01*
X215513037Y-58148240D01*
X215517607Y-58150133D01*
X215517611Y-58150135D01*
X215694519Y-58223412D01*
X215732406Y-58239105D01*
X215812609Y-58258360D01*
X215958476Y-58293380D01*
X215958482Y-58293381D01*
X215963289Y-58294535D01*
X216200000Y-58313165D01*
X216436711Y-58294535D01*
X216441518Y-58293381D01*
X216441524Y-58293380D01*
X216587391Y-58258360D01*
X216667594Y-58239105D01*
X216705481Y-58223412D01*
X216882389Y-58150135D01*
X216882393Y-58150133D01*
X216886963Y-58148240D01*
X216891183Y-58145654D01*
X217085202Y-58026759D01*
X217085208Y-58026755D01*
X217089416Y-58024176D01*
X217269969Y-57869969D01*
X217424176Y-57689416D01*
X217426755Y-57685208D01*
X217426759Y-57685202D01*
X217545654Y-57491183D01*
X217548240Y-57486963D01*
X217575407Y-57421377D01*
X217637211Y-57272167D01*
X217637212Y-57272165D01*
X217639105Y-57267594D01*
X217694535Y-57036711D01*
X217713165Y-56800000D01*
X217694535Y-56563289D01*
X217686914Y-56531542D01*
X217642507Y-56346576D01*
X217639105Y-56332406D01*
X217548240Y-56113037D01*
X217514935Y-56058688D01*
X217426759Y-55914798D01*
X217426755Y-55914792D01*
X217424176Y-55910584D01*
X217269969Y-55730031D01*
X217089416Y-55575824D01*
X217085208Y-55573245D01*
X217085202Y-55573241D01*
X216891183Y-55454346D01*
X216886963Y-55451760D01*
X216882393Y-55449867D01*
X216882389Y-55449865D01*
X216672167Y-55362789D01*
X216672165Y-55362788D01*
X216667594Y-55360895D01*
X216587391Y-55341640D01*
X216441524Y-55306620D01*
X216441518Y-55306619D01*
X216436711Y-55305465D01*
X216200000Y-55286835D01*
X215963289Y-55305465D01*
X215958482Y-55306619D01*
X215958476Y-55306620D01*
X215812609Y-55341640D01*
X215732406Y-55360895D01*
X215727835Y-55362788D01*
X215727833Y-55362789D01*
X215517611Y-55449865D01*
X215517607Y-55449867D01*
X215513037Y-55451760D01*
X215508817Y-55454346D01*
X215314798Y-55573241D01*
X215314792Y-55573245D01*
X215310584Y-55575824D01*
X215130031Y-55730031D01*
X214975824Y-55910584D01*
X214973245Y-55914792D01*
X214973241Y-55914798D01*
X214885065Y-56058688D01*
X214851760Y-56113037D01*
X214760895Y-56332406D01*
X214757493Y-56346576D01*
X214713087Y-56531542D01*
X214705465Y-56563289D01*
X214686835Y-56800000D01*
X186100500Y-56800000D01*
X186100500Y-54478043D01*
X239091139Y-54478043D01*
X239093335Y-54492207D01*
X239106522Y-54496000D01*
X240277885Y-54496000D01*
X240293124Y-54491525D01*
X240294329Y-54490135D01*
X240296000Y-54482452D01*
X240296000Y-53416151D01*
X240291690Y-53401473D01*
X240279807Y-53399410D01*
X240200675Y-53406124D01*
X240190203Y-53407914D01*
X239977465Y-53463130D01*
X239967425Y-53466665D01*
X239767030Y-53556937D01*
X239757744Y-53562106D01*
X239575425Y-53684850D01*
X239567130Y-53691519D01*
X239408100Y-53843228D01*
X239401059Y-53851186D01*
X239269859Y-54027525D01*
X239264255Y-54036562D01*
X239164643Y-54232484D01*
X239160643Y-54242335D01*
X239095466Y-54452240D01*
X239093183Y-54462624D01*
X239091139Y-54478043D01*
X186100500Y-54478043D01*
X186100500Y-45126500D01*
X186120502Y-45058379D01*
X186174158Y-45011886D01*
X186226500Y-45000500D01*
X241276129Y-45000500D01*
X241344250Y-45020502D01*
G37*
%TD.AperFunction*%
%TD*%
M02*
